<svg xmlns="http://www.w3.org/2000/svg" xml:space="preserve" viewBox="0 0 524 476"><path fill="currentColor" d="M263.572 370.432c-51.288.925-102.108 1.802-152.926 2.73-22.16.406-44.318.922-66.476 1.38-1.606.032-3.212.004-5.617.004 2.315-8.675 4.334-16.687 6.709-24.592.306-1.02 2.42-2.036 3.757-2.124 15.79-1.039 31.597-1.82 47.39-2.823 39.898-2.533 79.79-5.152 119.686-7.722 26.766-1.724 53.537-3.364 80.29-5.259 1.822-.129 4.472-1.684 5.115-3.245 4.934-11.967 9.494-24.09 14.102-36.191.873-2.294 1.445-4.703 2.33-7.634H36.291L14.495 95.996h36.398c1.68 15.757 3.218 31.447 5.05 47.103 3.982 34.05 8.164 68.078 12.113 102.133.422 3.64 2.658 3.188 4.935 3.192q24.75.051 49.496.053c67.829.005 135.658-.043 203.486.1 4.598.01 6.806-1.12 8.563-5.722 14.22-37.241 28.885-74.312 43.257-111.496a12424 12424 0 0 0 38.027-99.618c1.426-3.787 3.226-4.871 7.176-4.846 29.48.184 58.963.1 88.822.1v44.741c-1.301.068-2.744.207-4.187.208-18.499.017-37 .145-55.495-.093-3.836-.049-5.447 1.217-6.751 4.679a23944 23944 0 0 1-42.431 111.777c-12.515 32.735-25.255 65.383-37.725 98.134-9.339 24.526-18.573 49.093-27.507 73.768-3.16 8.726-2.69 8.876-12.206 9.048-20.492.37-40.985.763-61.945 1.175M367.681 443.67c-12.074 13.485-32.326 13.665-44.399 7.258-14.549-7.721-22.318-23.916-19.404-40.385 3.334-18.848 21.023-32.077 40.817-30.527 17.859 1.399 32.99 17.956 33.53 36.232.315 10.596-2.966 19.59-10.544 27.422M44.274 446.744c-16.604-16.707-13.141-39.23 1.31-50.836 11.24-9.028 24.195-9.96 36.968-3.23 11.318 5.964 17.223 15.9 17.409 28.774.2 13.865-6.526 24.337-18.546 30.165-12.735 6.175-25.568 4.76-37.141-4.873"></path></svg>